<?xml version="1.0" encoding="UTF-8"?>
<!DOCTYPE svg PUBLIC "-//W3C//DTD SVG 1.1//EN" "http://www.w3.org/Graphics/SVG/1.1/DTD/svg11.dtd">
<!-- Creator: CorelDRAW -->
<svg xmlns="http://www.w3.org/2000/svg" xml:space="preserve" width="297mm" height="210mm" version="1.1" style="shape-rendering:geometricPrecision; text-rendering:geometricPrecision; image-rendering:optimizeQuality; fill-rule:evenodd; clip-rule:evenodd"
viewBox="0 0 29700 21000"
 xmlns:xlink="http://www.w3.org/1999/xlink"
 xmlns:xodm="http://www.corel.com/coreldraw/odm/2003">
 <defs>
  <style type="text/css">
   <![CDATA[
    .fil0 {fill:#E30313;fill-rule:nonzero}
    .fil1 {fill:#E30313;fill-rule:nonzero}
   ]]>
  </style>
 </defs>
 <g id="Camada_x0020_1">
  <metadata id="CorelCorpID_0Corel-Layer"/>
  <polygon class="fil0" points="15005.75,11521.25 14568.97,11521.25 14568.97,8969.1 15005.75,8969.1 "/>
  <polygon class="fil0" points="15006.15,8523.13 14569.37,8523.13 14569.37,7825.6 15006.15,7825.6 "/>
  <path class="fil0" d="M25516.55 10094.54c-106.49,550.59 -586.1,965.12 -1160.47,965.12 -77.06,0 -153.88,-11.99 -230.95,-23.75l-350.53 353.44c180.78,69.72 376.65,108.32 581.48,108.32 817.09,0 1497.95,-609.76 1604.59,-1403.13l-444.12 0z"/>
  <path class="fil0" d="M24356.08 8259.16c-893.98,0 -1622.25,722.36 -1622.25,1616.32 0,526.51 252.7,995.22 642.74,1291.9l316.37 -315.06c-313.78,-213.11 -521.02,-568.41 -521.02,-976.84 0,-651.2 532.95,-1178.24 1184.16,-1178.24 402.55,0 763.73,207.22 976.92,515.07l-1640.06 1640.01c0,0 91.9,73.59 194.02,114.38 102.05,40.86 238.35,69.15 238.35,69.15l1740.65 -1740.61c-231,-609.78 -822.97,-1036.08 -1509.88,-1036.08z"/>
  <path class="fil0" d="M20730.3 11052.83c-649.19,0 -1180.46,-531.1 -1180.46,-1180.43 0,-649.18 531.27,-1174.4 1180.46,-1174.4 649.19,0 1174.59,525.22 1174.59,1174.4 0,649.33 -525.4,1180.43 -1174.59,1180.43zm1174.59 -2803.55l0 519.5c-295.18,-312.81 -714.26,-507.55 -1174.59,-507.55 -891.18,0 -1617.09,719.94 -1617.09,1611.17 0,891.14 725.91,1617.2 1617.09,1617.2 891.18,0 1611.21,-726.06 1611.21,-1617.2l0 -2050.14 -9.58 0 -427.04 427.02z"/>
  <path class="fil0" d="M17059.79 11071.64c-651.6,0 -1184.73,-533.12 -1184.73,-1184.69 0,-651.53 533.13,-1178.59 1184.73,-1178.59 651.6,0 1178.84,527.06 1178.84,1178.59 0,651.57 -527.24,1184.69 -1178.84,1184.69zm1178.84 -71.17l0 498.54 438.24 -438.24 0 -1173.82c0,-894.31 -722.77,-1617.05 -1617.08,-1617.05 -894.49,0 -1622.97,722.74 -1622.97,1617.05 0,894.51 728.48,1622.92 1622.97,1622.92 461.96,0 882.55,-195.29 1178.84,-509.4z"/>
  <path class="fil0" d="M12652.05 10160.73c-131.87,513.61 -592.92,892.1 -1140.73,892.1 -655.31,0 -1180.53,-531.08 -1180.53,-1180.43l0 -449.67 1351 0 0 -436.55 -1351 0 0 -1182.3 -436.78 436.73 0 1631.79c0,891.16 720.18,1617.22 1617.31,1617.22 790.18,0 1452.65,-572.51 1588.33,-1328.89l-447.6 0z"/>
  <path class="fil0" d="M14569.35 8523.15l-268.9 0 0 -0.56c-746.25,4.77 -1374.87,499.82 -1577.69,1179.55l474.12 0c183.32,-428.32 608.17,-728.81 1103.57,-733.25l0 -0.16 268.9 0 0 -445.58z"/>
  <path class="fil0" d="M4443.91 9857.58l0 402.2 1451.15 0 0 2482.06c-1018.96,-249.37 -1754.54,-1183.13 -1754.54,-2234.74 0,-355.53 79.72,-697 236.96,-1015.2l3685.37 0 0 -402.2 -3432.51 0c435.1,-554.4 1107.62,-883.6 1811.22,-883.6 1018,0 1919.85,677.08 2206.99,1651.48l-1985.57 0 0 2697.82 402.17 0 0 -2295.62 1663.58 0c9.17,84.66 13.81,167.68 13.81,247.32 0,1268.78 -1032.2,2301.04 -2300.98,2301.04 -44.32,0 -90.75,-1.65 -144.29,-5.15l0 -2945.41 -1853.36 0zm1997.65 -2053.68c-1490.58,0 -2703.26,1212.64 -2703.26,2703.2 0,1490.56 1212.68,2703.24 2703.26,2703.24 1490.55,0 2703.21,-1212.68 2703.21,-2703.24 0,-1490.56 -1212.66,-2703.2 -2703.21,-2703.2z"/>
  <path class="fil1" d="M10106.46 13090.11c79.1,0 142.79,-19.52 191.07,-58.56 48.29,-39.03 71.91,-90.39 71.91,-154.08 0,-50.34 -18.49,-90.4 -54.44,-120.19 -35.96,-29.79 -99.65,-55.48 -189.02,-77.05 -66.77,-17.46 -111.97,-34.93 -137.65,-53.42 -25.68,-17.46 -38.01,-42.11 -38.01,-72.93 0,-70.88 61.64,-118.14 157.17,-118.14 64.72,0 125.33,21.58 180.8,63.69 7.19,5.14 12.33,4.11 16.44,-1.02l42.11 -45.2c6.17,-6.17 6.17,-12.33 -1.02,-18.49 -64.72,-53.42 -143.82,-80.13 -237.3,-80.13 -74.99,0 -134.57,19.52 -180.8,57.53 -46.23,38.01 -69.85,89.37 -69.85,152.03 0,94.51 66.77,147.93 239.35,192.1 72.93,19.52 121.22,38.01 144.84,54.44 23.63,17.47 34.93,41.09 34.93,71.91 0,73.96 -71.91,127.38 -170.53,127.38 -34.92,0 -70.88,-7.19 -106.83,-21.57 -35.95,-14.38 -64.72,-31.85 -84.24,-53.42 -6.16,-6.16 -12.32,-6.16 -17.46,0l-42.12 43.15c-6.16,6.16 -6.16,12.32 0,17.46 53.42,58.55 148.96,94.51 250.65,94.51zm586.17 -89.37l0 -238.33 226 0c9.24,0 14.38,-4.11 14.38,-13.35l0 -54.45c0,-7.19 -7.19,-13.35 -14.38,-13.35l-226 0 0 -237.3 329.75 0c9.25,0 13.36,-5.13 13.36,-14.38l0 -52.39c0,-9.25 -4.11,-14.38 -13.36,-14.38l-405.77 0c-7.19,0 -14.38,6.16 -14.38,14.38l0 690.32c0,8.22 7.19,14.38 14.38,14.38l404.74 0c7.19,0 14.39,-6.16 14.39,-14.38l0 -52.39c0,-8.22 -7.2,-14.38 -14.39,-14.38l-328.72 0zm921.05 -193.13c78.07,-20.54 135.6,-98.62 135.6,-217.78 0,-70.88 -18.49,-126.35 -54.45,-166.41 -35.95,-40.07 -80.12,-59.58 -130.46,-60.61l-282.49 0c-9.25,0 -13.36,5.13 -13.36,14.38l0 691.35c0,9.24 4.11,13.35 13.36,13.35l64.71 0c8.22,0 12.33,-4.11 12.33,-13.35l0 -248.6 166.42 0 133.54 248.6c5.14,9.24 11.3,13.35 18.49,13.35l66.77 0c8.22,0 13.36,-6.16 9.25,-14.38l-139.71 -259.9zm-81.15 -363.65c78.07,0 125.32,49.31 125.32,147.93 0,97.59 -44.17,146.9 -132.51,146.9l-166.42 0 0 -294.83 173.61 0zm949.81 -81.15c-6.16,0 -11.3,5.13 -14.38,14.38l-212.64 548.56 -212.64 -548.56c-3.09,-9.25 -8.22,-14.38 -15.41,-14.38l-66.78 0c-10.27,0 -13.35,5.13 -10.27,14.38l277.36 692.37c3.08,8.22 8.22,12.33 14.38,12.33l26.71 0c6.17,0 11.3,-4.11 14.38,-12.33l278.39 -692.37c3.08,-8.22 -3.08,-14.38 -11.3,-14.38l-67.8 0zm377.63 719.08c7.19,0 11.3,-5.14 11.3,-14.38l0 -690.32c0,-9.25 -4.11,-14.38 -11.3,-14.38l-65.74 0c-9.25,0 -13.36,5.13 -13.36,14.38l0 690.32c0,9.24 4.11,14.38 13.36,14.38l65.74 0zm821.41 -179.77c-8.22,-7.19 -15.41,-6.16 -20.55,2.05 -41.09,61.64 -116.08,103.76 -205.45,103.76 -78.07,0 -141.76,-27.74 -191.07,-84.24 -50.33,-55.47 -74.99,-122.24 -74.99,-201.34 0,-79.1 24.66,-145.87 74.99,-202.37 50.34,-55.47 114.03,-83.21 191.07,-83.21 89.37,0 158.2,40.06 198.26,96.56 6.17,9.25 13.36,9.25 21.57,1.03l41.1 -41.09c6.16,-6.16 6.16,-13.35 0,-20.55 -61.64,-79.09 -148.96,-118.13 -260.93,-118.13 -101.7,0 -185.93,35.95 -254.76,107.86 -68.83,71.91 -102.73,158.2 -102.73,259.9 0,93.48 29.8,175.66 89.38,244.49 59.58,69.85 135.59,109.91 227.02,121.21l-26.71 62.67c-1.03,5.13 1.03,8.21 5.14,10.27l27.73 10.27 3.09 1.03c3.08,0 9.24,0 14.38,-3.08 21.57,-9.25 45.2,1.02 45.2,30.81 0,20.55 -12.33,36.99 -36.98,36.99 -14.39,0 -24.66,-5.14 -31.85,-16.44 -3.08,-5.14 -6.16,-6.16 -10.27,-3.08l-23.63 13.35c-3.08,2.06 -4.11,6.17 -2.05,11.3 7.19,17.47 35.95,39.04 69.85,39.04 53.42,0 85.26,-30.82 85.26,-81.16 0,-54.44 -43.14,-81.15 -87.31,-71.9l15.4 -38.01c107.87,-2.06 195.18,-45.2 261.96,-128.41 6.16,-9.24 6.16,-15.41 -1.03,-20.54l-41.09 -39.04zm859.41 81.15c67.8,-70.88 101.7,-158.2 101.7,-259.89 0,-102.73 -33.9,-190.05 -101.7,-261.96 -68.82,-70.88 -153.06,-106.83 -253.73,-106.83 -100.67,0 -184.91,35.95 -253.73,106.83 -68.83,71.91 -103.76,159.23 -103.76,261.96 0,101.69 34.93,189.01 103.76,259.89 68.82,70.88 153.06,106.84 253.73,106.84 100.67,0 184.91,-35.96 253.73,-106.84zm-445.83 -59.58c-49.3,-56.5 -73.96,-123.27 -73.96,-200.31 0,-78.08 24.66,-145.87 74.99,-202.37 49.31,-56.5 113,-84.24 190.04,-84.24 78.08,0 141.77,28.76 191.07,85.26 49.31,56.5 73.97,124.3 73.97,201.35 0,77.04 -24.66,143.81 -73.97,200.31 -49.3,56.5 -112.99,85.26 -191.07,85.26 -78.07,0 -141.76,-28.76 -191.07,-85.26zm1008.37 166.42c79.1,0 142.79,-19.52 191.07,-58.56 48.29,-39.03 71.91,-90.39 71.91,-154.08 0,-50.34 -18.49,-90.4 -54.44,-120.19 -35.96,-29.79 -99.65,-55.48 -189.02,-77.05 -66.77,-17.46 -111.97,-34.93 -137.65,-53.42 -25.68,-17.46 -38.01,-42.11 -38.01,-72.93 0,-70.88 61.64,-118.14 157.17,-118.14 64.72,0 125.33,21.58 180.8,63.69 7.19,5.14 12.33,4.11 16.44,-1.02l42.11 -45.2c6.17,-6.17 6.17,-12.33 -1.02,-18.49 -64.72,-53.42 -143.82,-80.13 -237.3,-80.13 -74.99,0 -134.57,19.52 -180.8,57.53 -46.23,38.01 -69.85,89.37 -69.85,152.03 0,94.51 66.77,147.93 239.35,192.1 72.93,19.52 121.22,38.01 144.84,54.44 23.63,17.47 34.93,41.09 34.93,71.91 0,73.96 -71.91,127.38 -170.53,127.38 -34.92,0 -70.88,-7.19 -106.83,-21.57 -35.95,-14.38 -64.72,-31.85 -84.24,-53.42 -6.16,-6.16 -12.32,-6.16 -17.46,0l-42.12 43.15c-6.16,6.16 -6.16,12.32 0,17.46 53.42,58.55 148.96,94.51 250.65,94.51zm807.03 -8.22c7.19,0 11.3,-5.14 11.3,-14.38l0 -690.32c0,-9.25 -4.11,-14.38 -11.3,-14.38l-65.74 0c-9.25,0 -13.36,5.13 -13.36,14.38l0 690.32c0,9.24 4.11,14.38 13.36,14.38l65.74 0zm752.58 -719.08c-7.19,0 -11.3,5.13 -11.3,14.38l0 534.17 -386.25 -533.14c-5.13,-10.28 -12.32,-15.41 -20.54,-15.41l-55.47 0c-9.25,0 -13.36,5.13 -13.36,14.38l0 691.35c0,9.24 4.11,13.35 13.36,13.35l65.74 0c7.19,0 11.3,-4.11 11.3,-13.35l0 -537.26 389.33 537.26c5.14,9.24 12.33,13.35 20.55,13.35l53.41 0c8.22,0 12.33,-4.11 12.33,-13.35l0 -691.35c0,-9.25 -4.11,-14.38 -12.33,-14.38l-66.77 0zm879.96 360.57c0,-234.22 -107.86,-359.54 -299.96,-360.57l-233.19 0c-7.19,0 -14.38,6.16 -14.38,14.38l0 690.32c0,8.22 7.19,14.38 14.38,14.38l229.08 0c194.15,-1.03 304.07,-127.38 304.07,-358.51zm-457.13 277.36l0 -556.78 147.93 0c144.84,0 217.78,93.48 217.78,279.42 0,184.9 -72.94,277.36 -217.78,277.36l-147.93 0zm1165.54 -637.93c-9.24,0 -13.35,5.13 -13.35,15.41l0 405.76c0,143.82 -68.83,224.97 -191.07,224.97 -122.24,0 -191.07,-81.15 -191.07,-224.97l0 -405.76c0,-10.28 -4.11,-15.41 -13.35,-15.41l-62.67 0c-9.24,0 -14.38,5.13 -14.38,15.41l0 421.17c0,86.29 23.63,156.15 70.88,209.56 47.26,54.45 117.11,81.16 210.59,81.16 93.48,0 163.33,-26.71 210.59,-81.16 47.25,-53.41 70.88,-123.27 70.88,-209.56l0 -421.17c0,-10.28 -4.11,-15.41 -13.35,-15.41l-63.7 0zm558.43 727.3c79.1,0 142.79,-19.52 191.07,-58.56 48.29,-39.03 71.91,-90.39 71.91,-154.08 0,-50.34 -18.49,-90.4 -54.44,-120.19 -35.96,-29.79 -99.65,-55.48 -189.02,-77.05 -66.77,-17.46 -111.97,-34.93 -137.65,-53.42 -25.68,-17.46 -38.01,-42.11 -38.01,-72.93 0,-70.88 61.64,-118.14 157.17,-118.14 64.72,0 125.33,21.58 180.8,63.69 7.19,5.14 12.33,4.11 16.44,-1.02l42.11 -45.2c6.17,-6.17 6.17,-12.33 -1.02,-18.49 -64.72,-53.42 -143.82,-80.13 -237.3,-80.13 -74.99,0 -134.57,19.52 -180.8,57.53 -46.23,38.01 -69.85,89.37 -69.85,152.03 0,94.51 66.77,147.93 239.35,192.1 72.93,19.52 121.22,38.01 144.84,54.44 23.63,17.47 34.93,41.09 34.93,71.91 0,73.96 -71.91,127.38 -170.53,127.38 -34.92,0 -70.88,-7.19 -106.83,-21.57 -35.95,-14.38 -64.72,-31.85 -84.24,-53.42 -6.16,-6.16 -12.32,-6.16 -17.46,0l-42.12 43.15c-6.16,6.16 -6.16,12.32 0,17.46 53.42,58.55 148.96,94.51 250.65,94.51zm455.71 -727.3c-7.2,0 -14.39,7.19 -14.39,14.38l0 52.39c0,8.22 7.19,14.38 14.39,14.38l201.34 0 0 623.55c0,9.24 4.11,14.38 13.35,14.38l63.69 0c9.25,0 13.36,-5.14 13.36,-14.38l0 -623.55 201.34 0c9.25,0 14.38,-5.13 14.38,-14.38l0 -52.39c0,-7.19 -6.16,-14.38 -14.38,-14.38l-493.08 0zm1075.14 444.8c78.07,-20.54 135.6,-98.62 135.6,-217.78 0,-70.88 -18.49,-126.35 -54.45,-166.41 -35.95,-40.07 -80.12,-59.58 -130.46,-60.61l-282.49 0c-9.25,0 -13.36,5.13 -13.36,14.38l0 691.35c0,9.24 4.11,13.35 13.36,13.35l64.71 0c8.22,0 12.33,-4.11 12.33,-13.35l0 -248.6 166.42 0 133.54 248.6c5.14,9.24 11.3,13.35 18.49,13.35l66.77 0c8.22,0 13.36,-6.16 9.25,-14.38l-139.71 -259.9zm-81.15 -363.65c78.07,0 125.32,49.31 125.32,147.93 0,97.59 -44.17,146.9 -132.51,146.9l-166.42 0 0 -294.83 173.61 0zm537.88 637.93c7.19,0 11.3,-5.14 11.3,-14.38l0 -690.32c0,-9.25 -4.11,-14.38 -11.3,-14.38l-65.74 0c-9.25,0 -13.36,5.13 -13.36,14.38l0 690.32c0,9.24 4.11,14.38 13.36,14.38l65.74 0zm525.56 -727.3c-3.08,0 -7.19,4.11 -10.27,13.35l-282.5 699.57c-3.08,9.24 0,14.38 9.24,14.38l67.8 0c6.17,0 11.3,-5.14 14.39,-14.38l51.36 -131.49 330.78 0 52.39 131.49c3.08,9.24 8.21,14.38 14.38,14.38l66.77 0c10.27,0 13.35,-5.14 10.27,-14.38l-285.58 -699.57c-3.08,-9.24 -7.19,-13.35 -11.3,-13.35l-27.73 0zm7.19 186.96l7.19 -18.49 7.19 18.49 125.33 313.32 -262.98 0 123.27 -313.32zm616.98 540.34c7.19,0 11.3,-5.14 11.3,-14.38l0 -690.32c0,-9.25 -4.11,-14.38 -11.3,-14.38l-65.74 0c-9.25,0 -13.36,5.13 -13.36,14.38l0 690.32c0,9.24 4.11,14.38 13.36,14.38l65.74 0zm500.9 8.22c79.1,0 142.79,-19.52 191.07,-58.56 48.29,-39.03 71.91,-90.39 71.91,-154.08 0,-50.34 -18.49,-90.4 -54.44,-120.19 -35.96,-29.79 -99.65,-55.48 -189.02,-77.05 -66.77,-17.46 -111.97,-34.93 -137.65,-53.42 -25.68,-17.46 -38.01,-42.11 -38.01,-72.93 0,-70.88 61.64,-118.14 157.17,-118.14 64.72,0 125.33,21.58 180.8,63.69 7.19,5.14 12.33,4.11 16.44,-1.02l42.11 -45.2c6.17,-6.17 6.17,-12.33 -1.02,-18.49 -64.72,-53.42 -143.82,-80.13 -237.3,-80.13 -74.99,0 -134.57,19.52 -180.8,57.53 -46.23,38.01 -69.85,89.37 -69.85,152.03 0,94.51 66.77,147.93 239.35,192.1 72.93,19.52 121.22,38.01 144.84,54.44 23.63,17.47 34.93,41.09 34.93,71.91 0,73.96 -71.91,127.38 -170.53,127.38 -34.92,0 -70.88,-7.19 -106.83,-21.57 -35.95,-14.38 -64.72,-31.85 -84.24,-53.42 -6.16,-6.16 -12.32,-6.16 -17.46,0l-42.12 43.15c-6.16,6.16 -6.16,12.32 0,17.46 53.42,58.55 148.96,94.51 250.65,94.51zm818.33 -89.37l0 -622.52c0,-10.28 -4.11,-15.41 -11.3,-15.41l-65.74 0c-9.25,0 -13.36,5.13 -13.36,15.41l0 689.29c0,8.22 7.19,14.38 14.38,14.38l385.23 0c9.24,0 13.35,-5.14 13.35,-14.38l0 -52.39c0,-9.25 -4.11,-14.38 -13.35,-14.38l-309.21 0zm450.57 -637.93c-7.2,0 -14.39,7.19 -14.39,14.38l0 52.39c0,8.22 7.19,14.38 14.39,14.38l201.34 0 0 623.55c0,9.24 4.11,14.38 13.35,14.38l63.69 0c9.25,0 13.36,-5.14 13.36,-14.38l0 -623.55 201.34 0c9.25,0 14.38,-5.13 14.38,-14.38l0 -52.39c0,-7.19 -6.16,-14.38 -14.38,-14.38l-493.08 0zm1277.51 360.57c0,-234.22 -107.86,-359.54 -299.96,-360.57l-233.19 0c-7.19,0 -14.38,6.16 -14.38,14.38l0 690.32c0,8.22 7.19,14.38 14.38,14.38l229.08 0c194.15,-1.03 304.07,-127.38 304.07,-358.51zm-457.13 277.36l0 -556.78 147.93 0c144.84,0 217.78,93.48 217.78,279.42 0,184.9 -72.94,277.36 -217.78,277.36l-147.93 0zm912.84 -646.15c-3.08,0 -7.19,4.11 -10.27,13.35l-282.5 699.57c-3.08,9.24 0,14.38 9.24,14.38l67.8 0c6.17,0 11.3,-5.14 14.39,-14.38l51.36 -131.49 330.78 0 52.39 131.49c3.08,9.24 8.21,14.38 14.38,14.38l66.77 0c10.27,0 13.35,-5.14 10.27,-14.38l-285.58 -699.57c-3.08,-9.24 -7.19,-13.35 -11.3,-13.35l-27.73 0zm7.19 186.96l7.19 -18.49 7.19 18.49 125.33 313.32 -262.98 0 123.27 -313.32z"/>
 </g>
</svg>
